<mxfile host="app.diagrams.net" agent="Mozilla/5.0 (Macintosh; Intel Mac OS X 10.15; rv:139.0) Gecko/20100101 Firefox/139.0" version="27.1.6" pages="3">
  <diagram name="architectures" id="TW-Pl4PVOoqliyeGaSN4">
    <mxGraphModel dx="811" dy="138" grid="0" gridSize="10" guides="1" tooltips="1" connect="1" arrows="1" fold="1" page="0" pageScale="1" pageWidth="827" pageHeight="1169" math="0" shadow="0">
      <root>
        <mxCell id="0" />
        <mxCell id="1" parent="0" />
        <mxCell id="64m2rop3GXZwl_2_S2sW-119" value="&lt;div&gt;&lt;br/&gt;&lt;/div&gt;" style="shape=image;html=1;verticalAlign=top;verticalLabelPosition=bottom;labelBackgroundColor=#ffffff;imageAspect=0;aspect=fixed;image=https://cdn1.iconfinder.com/data/icons/bootstrap-vol-2/16/circle-half-128.png" vertex="1" parent="1">
          <mxGeometry x="193.42000000000002" y="676.97" width="20" height="20" as="geometry" />
        </mxCell>
        <mxCell id="64m2rop3GXZwl_2_S2sW-120" value="&lt;div&gt;Data Prosumer&lt;/div&gt;&lt;div&gt;bzw. Connector&lt;/div&gt;" style="text;html=1;align=left;verticalAlign=middle;resizable=0;points=[];autosize=1;strokeColor=none;fillColor=none;fontFamily=CMU;fontSource=https%3A%2F%2Fcdn.jsdelivr.net%2Fgh%2Fbitmaks%2Fcm-web-fonts%40latest%2Ffont%2FSerif%2Fcmunrm.woff;" vertex="1" parent="1">
          <mxGeometry x="219.42000000000002" y="666.97" width="110" height="40" as="geometry" />
        </mxCell>
        <mxCell id="64m2rop3GXZwl_2_S2sW-121" value="" style="ellipse;whiteSpace=wrap;html=1;aspect=fixed;strokeWidth=1;" vertex="1" parent="1">
          <mxGeometry x="329.42" y="676.97" width="20" height="20" as="geometry" />
        </mxCell>
        <mxCell id="64m2rop3GXZwl_2_S2sW-122" value="&lt;div align=&quot;left&quot;&gt;Data Consumer&lt;/div&gt;" style="text;html=1;align=left;verticalAlign=middle;resizable=0;points=[];autosize=1;strokeColor=none;fillColor=none;fontFamily=CMU;fontSource=https%3A%2F%2Fcdn.jsdelivr.net%2Fgh%2Fbitmaks%2Fcm-web-fonts%40latest%2Ffont%2FSerif%2Fcmunrm.woff;" vertex="1" parent="1">
          <mxGeometry x="355.42" y="671.97" width="110" height="30" as="geometry" />
        </mxCell>
        <mxCell id="64m2rop3GXZwl_2_S2sW-123" value="" style="shape=image;html=1;verticalAlign=top;verticalLabelPosition=bottom;labelBackgroundColor=#ffffff;imageAspect=0;aspect=fixed;image=https://cdn1.iconfinder.com/data/icons/bootstrap-vol-2/16/circle-half-128.png;rotation=0;direction=north;" vertex="1" parent="1">
          <mxGeometry x="591.4200000000001" y="676.97" width="20" height="20" as="geometry" />
        </mxCell>
        <mxCell id="64m2rop3GXZwl_2_S2sW-124" value="&lt;div align=&quot;left&quot;&gt;Data Intermediary&lt;/div&gt;" style="text;html=1;align=left;verticalAlign=middle;resizable=0;points=[];autosize=1;strokeColor=none;fillColor=none;fontFamily=CMU;fontSource=https%3A%2F%2Fcdn.jsdelivr.net%2Fgh%2Fbitmaks%2Fcm-web-fonts%40latest%2Ffont%2FSerif%2Fcmunrm.woff;" vertex="1" parent="1">
          <mxGeometry x="617.4200000000001" y="671.97" width="120" height="30" as="geometry" />
        </mxCell>
        <mxCell id="64m2rop3GXZwl_2_S2sW-140" value="" style="shape=image;html=1;verticalAlign=top;verticalLabelPosition=bottom;labelBackgroundColor=#ffffff;imageAspect=0;aspect=fixed;image=https://cdn4.iconfinder.com/data/icons/essential-app-1/16/share-link-connection-network-128.png" vertex="1" parent="1">
          <mxGeometry x="737.4200000000001" y="676.97" width="20" height="20" as="geometry" />
        </mxCell>
        <mxCell id="64m2rop3GXZwl_2_S2sW-141" value="&lt;div align=&quot;left&quot;&gt;Data Space&lt;/div&gt;" style="text;html=1;align=left;verticalAlign=middle;resizable=0;points=[];autosize=1;strokeColor=none;fillColor=none;fontFamily=CMU;fontSource=https%3A%2F%2Fcdn.jsdelivr.net%2Fgh%2Fbitmaks%2Fcm-web-fonts%40latest%2Ffont%2FSerif%2Fcmunrm.woff;" vertex="1" parent="1">
          <mxGeometry x="763.4200000000001" y="671.97" width="80" height="30" as="geometry" />
        </mxCell>
        <mxCell id="64m2rop3GXZwl_2_S2sW-144" value="" style="group" vertex="1" connectable="0" parent="1">
          <mxGeometry x="160" y="470" width="716.8416329507874" height="196.97088913245545" as="geometry" />
        </mxCell>
        <mxCell id="64m2rop3GXZwl_2_S2sW-126" value="&lt;div&gt;Inter-Organisational&lt;/div&gt;&lt;div&gt;Information Systems&lt;/div&gt;" style="text;html=1;align=center;verticalAlign=middle;resizable=0;points=[];autosize=1;strokeColor=none;fillColor=none;fontFamily=CMU;fontSource=https%3A%2F%2Fcdn.jsdelivr.net%2Fgh%2Fbitmaks%2Fcm-web-fonts%40latest%2Ffont%2FSerif%2Fcmunrm.woff;fontStyle=1" vertex="1" parent="64m2rop3GXZwl_2_S2sW-144">
          <mxGeometry x="5" width="130" height="40" as="geometry" />
        </mxCell>
        <mxCell id="64m2rop3GXZwl_2_S2sW-127" value="&lt;div&gt;Industrial Data Ecosystem mit&lt;/div&gt;&lt;div&gt;Data Intermediaries&lt;/div&gt;" style="text;html=1;align=center;verticalAlign=middle;resizable=0;points=[];autosize=1;strokeColor=none;fillColor=none;fontFamily=CMU;fontSource=https%3A%2F%2Fcdn.jsdelivr.net%2Fgh%2Fbitmaks%2Fcm-web-fonts%40latest%2Ffont%2FSerif%2Fcmunrm.woff;fontStyle=1" vertex="1" parent="64m2rop3GXZwl_2_S2sW-144">
          <mxGeometry x="171" width="190" height="40" as="geometry" />
        </mxCell>
        <mxCell id="64m2rop3GXZwl_2_S2sW-128" value="Data Spaces" style="text;html=1;align=center;verticalAlign=middle;resizable=0;points=[];autosize=1;strokeColor=none;fillColor=none;fontFamily=CMU;fontSource=https%3A%2F%2Fcdn.jsdelivr.net%2Fgh%2Fbitmaks%2Fcm-web-fonts%40latest%2Ffont%2FSerif%2Fcmunrm.woff;fontStyle=1" vertex="1" parent="64m2rop3GXZwl_2_S2sW-144">
          <mxGeometry x="420" y="5" width="90" height="30" as="geometry" />
        </mxCell>
        <mxCell id="64m2rop3GXZwl_2_S2sW-17" style="edgeStyle=orthogonalEdgeStyle;rounded=0;orthogonalLoop=1;jettySize=auto;html=1;endArrow=none;startFill=0;" edge="1" parent="64m2rop3GXZwl_2_S2sW-144" source="64m2rop3GXZwl_2_S2sW-18" target="64m2rop3GXZwl_2_S2sW-8">
          <mxGeometry relative="1" as="geometry" />
        </mxCell>
        <mxCell id="64m2rop3GXZwl_2_S2sW-15" value="" style="endArrow=none;html=1;rounded=0;exitX=0;exitY=0;exitDx=0;exitDy=0;" edge="1" parent="64m2rop3GXZwl_2_S2sW-144" source="64m2rop3GXZwl_2_S2sW-18" target="64m2rop3GXZwl_2_S2sW-12">
          <mxGeometry width="50" height="50" relative="1" as="geometry">
            <mxPoint x="252" y="106" as="sourcePoint" />
            <mxPoint x="217" y="78" as="targetPoint" />
          </mxGeometry>
        </mxCell>
        <mxCell id="64m2rop3GXZwl_2_S2sW-16" value="" style="endArrow=none;html=1;rounded=0;exitX=0;exitY=1;exitDx=0;exitDy=0;" edge="1" parent="64m2rop3GXZwl_2_S2sW-144" source="64m2rop3GXZwl_2_S2sW-13" target="64m2rop3GXZwl_2_S2sW-9">
          <mxGeometry width="50" height="50" relative="1" as="geometry">
            <mxPoint x="295.4" y="205.39999999999998" as="sourcePoint" />
            <mxPoint x="203" y="113" as="targetPoint" />
          </mxGeometry>
        </mxCell>
        <mxCell id="64m2rop3GXZwl_2_S2sW-6" style="edgeStyle=orthogonalEdgeStyle;rounded=0;orthogonalLoop=1;jettySize=auto;html=1;entryX=0;entryY=0.5;entryDx=0;entryDy=0;endArrow=none;startFill=0;" edge="1" parent="64m2rop3GXZwl_2_S2sW-144" source="64m2rop3GXZwl_2_S2sW-1" target="64m2rop3GXZwl_2_S2sW-2">
          <mxGeometry relative="1" as="geometry" />
        </mxCell>
        <mxCell id="64m2rop3GXZwl_2_S2sW-1" value="" style="shape=image;html=1;verticalAlign=top;verticalLabelPosition=bottom;labelBackgroundColor=#ffffff;imageAspect=0;aspect=fixed;image=https://cdn1.iconfinder.com/data/icons/bootstrap-vol-2/16/circle-half-128.png" vertex="1" parent="64m2rop3GXZwl_2_S2sW-144">
          <mxGeometry y="106" width="28" height="28" as="geometry" />
        </mxCell>
        <mxCell id="64m2rop3GXZwl_2_S2sW-5" style="edgeStyle=orthogonalEdgeStyle;rounded=0;orthogonalLoop=1;jettySize=auto;html=1;entryX=0;entryY=0.5;entryDx=0;entryDy=0;endArrow=none;startFill=0;" edge="1" parent="64m2rop3GXZwl_2_S2sW-144" source="64m2rop3GXZwl_2_S2sW-2" target="64m2rop3GXZwl_2_S2sW-3">
          <mxGeometry relative="1" as="geometry" />
        </mxCell>
        <mxCell id="64m2rop3GXZwl_2_S2sW-2" value="" style="shape=image;html=1;verticalAlign=top;verticalLabelPosition=bottom;labelBackgroundColor=#ffffff;imageAspect=0;aspect=fixed;image=https://cdn1.iconfinder.com/data/icons/bootstrap-vol-2/16/circle-half-128.png" vertex="1" parent="64m2rop3GXZwl_2_S2sW-144">
          <mxGeometry x="56" y="106" width="28" height="28" as="geometry" />
        </mxCell>
        <mxCell id="64m2rop3GXZwl_2_S2sW-3" value="" style="shape=image;html=1;verticalAlign=top;verticalLabelPosition=bottom;labelBackgroundColor=#ffffff;imageAspect=0;aspect=fixed;image=https://cdn1.iconfinder.com/data/icons/bootstrap-vol-2/16/circle-half-128.png" vertex="1" parent="64m2rop3GXZwl_2_S2sW-144">
          <mxGeometry x="112" y="106" width="28" height="28" as="geometry" />
        </mxCell>
        <mxCell id="64m2rop3GXZwl_2_S2sW-8" value="" style="ellipse;whiteSpace=wrap;html=1;aspect=fixed;strokeWidth=1.5;" vertex="1" parent="64m2rop3GXZwl_2_S2sW-144">
          <mxGeometry x="252" y="162" width="28" height="28" as="geometry" />
        </mxCell>
        <mxCell id="64m2rop3GXZwl_2_S2sW-9" value="" style="ellipse;whiteSpace=wrap;html=1;aspect=fixed;strokeWidth=1.5;" vertex="1" parent="64m2rop3GXZwl_2_S2sW-144">
          <mxGeometry x="196" y="162" width="28" height="28" as="geometry" />
        </mxCell>
        <mxCell id="64m2rop3GXZwl_2_S2sW-10" value="" style="ellipse;whiteSpace=wrap;html=1;aspect=fixed;strokeWidth=1.5;" vertex="1" parent="64m2rop3GXZwl_2_S2sW-144">
          <mxGeometry x="308" y="162" width="28" height="28" as="geometry" />
        </mxCell>
        <mxCell id="64m2rop3GXZwl_2_S2sW-11" value="" style="ellipse;whiteSpace=wrap;html=1;aspect=fixed;strokeWidth=3;fillColor=#000000;" vertex="1" parent="64m2rop3GXZwl_2_S2sW-144">
          <mxGeometry x="252" y="50" width="28" height="28" as="geometry" />
        </mxCell>
        <mxCell id="64m2rop3GXZwl_2_S2sW-12" value="" style="ellipse;whiteSpace=wrap;html=1;aspect=fixed;strokeWidth=3;fillColor=#000000;" vertex="1" parent="64m2rop3GXZwl_2_S2sW-144">
          <mxGeometry x="196" y="50" width="28" height="28" as="geometry" />
        </mxCell>
        <mxCell id="64m2rop3GXZwl_2_S2sW-13" value="" style="ellipse;whiteSpace=wrap;html=1;aspect=fixed;strokeWidth=3;fillColor=#000000;" vertex="1" parent="64m2rop3GXZwl_2_S2sW-144">
          <mxGeometry x="308" y="50" width="28" height="28" as="geometry" />
        </mxCell>
        <mxCell id="64m2rop3GXZwl_2_S2sW-19" value="" style="endArrow=none;html=1;rounded=0;exitX=0;exitY=0;exitDx=0;exitDy=0;" edge="1" parent="64m2rop3GXZwl_2_S2sW-144" source="64m2rop3GXZwl_2_S2sW-10" target="64m2rop3GXZwl_2_S2sW-18">
          <mxGeometry width="50" height="50" relative="1" as="geometry">
            <mxPoint x="312.2" y="166.20000000000005" as="sourcePoint" />
            <mxPoint x="219.8" y="73.79999999999995" as="targetPoint" />
          </mxGeometry>
        </mxCell>
        <mxCell id="64m2rop3GXZwl_2_S2sW-23" style="edgeStyle=orthogonalEdgeStyle;rounded=0;orthogonalLoop=1;jettySize=auto;html=1;exitX=1;exitY=0.5;exitDx=0;exitDy=0;endArrow=none;startFill=0;" edge="1" parent="64m2rop3GXZwl_2_S2sW-144" source="64m2rop3GXZwl_2_S2sW-20" target="64m2rop3GXZwl_2_S2sW-21">
          <mxGeometry relative="1" as="geometry" />
        </mxCell>
        <mxCell id="64m2rop3GXZwl_2_S2sW-20" value="" style="ellipse;whiteSpace=wrap;html=1;aspect=fixed;strokeWidth=1.5;" vertex="1" parent="64m2rop3GXZwl_2_S2sW-144">
          <mxGeometry x="392" y="162" width="28" height="28" as="geometry" />
        </mxCell>
        <mxCell id="64m2rop3GXZwl_2_S2sW-24" style="edgeStyle=orthogonalEdgeStyle;rounded=0;orthogonalLoop=1;jettySize=auto;html=1;exitX=1;exitY=0.5;exitDx=0;exitDy=0;entryX=0;entryY=0.5;entryDx=0;entryDy=0;endArrow=none;startFill=0;" edge="1" parent="64m2rop3GXZwl_2_S2sW-144" source="64m2rop3GXZwl_2_S2sW-21" target="64m2rop3GXZwl_2_S2sW-22">
          <mxGeometry relative="1" as="geometry" />
        </mxCell>
        <mxCell id="64m2rop3GXZwl_2_S2sW-21" value="" style="shape=image;html=1;verticalAlign=top;verticalLabelPosition=bottom;labelBackgroundColor=#ffffff;imageAspect=0;aspect=fixed;image=https://cdn1.iconfinder.com/data/icons/bootstrap-vol-2/16/circle-half-128.png" vertex="1" parent="64m2rop3GXZwl_2_S2sW-144">
          <mxGeometry x="448" y="162" width="28" height="28" as="geometry" />
        </mxCell>
        <mxCell id="64m2rop3GXZwl_2_S2sW-22" value="" style="ellipse;whiteSpace=wrap;html=1;aspect=fixed;strokeWidth=3;fillColor=#000000;" vertex="1" parent="64m2rop3GXZwl_2_S2sW-144">
          <mxGeometry x="504" y="162" width="28" height="28" as="geometry" />
        </mxCell>
        <mxCell id="64m2rop3GXZwl_2_S2sW-37" value="" style="ellipse;whiteSpace=wrap;html=1;aspect=fixed;strokeWidth=3;fillColor=#000000;" vertex="1" parent="64m2rop3GXZwl_2_S2sW-144">
          <mxGeometry x="392" y="50" width="28" height="28" as="geometry" />
        </mxCell>
        <mxCell id="64m2rop3GXZwl_2_S2sW-38" style="edgeStyle=orthogonalEdgeStyle;rounded=0;orthogonalLoop=1;jettySize=auto;html=1;endArrow=none;startFill=0;" edge="1" parent="64m2rop3GXZwl_2_S2sW-144" source="64m2rop3GXZwl_2_S2sW-37">
          <mxGeometry relative="1" as="geometry">
            <mxPoint x="406" y="162" as="targetPoint" />
          </mxGeometry>
        </mxCell>
        <mxCell id="64m2rop3GXZwl_2_S2sW-39" value="" style="shape=image;html=1;verticalAlign=top;verticalLabelPosition=bottom;labelBackgroundColor=#ffffff;imageAspect=0;aspect=fixed;image=https://cdn1.iconfinder.com/data/icons/bootstrap-vol-2/16/circle-half-128.png" vertex="1" parent="64m2rop3GXZwl_2_S2sW-144">
          <mxGeometry x="448" y="106" width="28" height="28" as="geometry" />
        </mxCell>
        <mxCell id="64m2rop3GXZwl_2_S2sW-42" value="" style="endArrow=none;html=1;rounded=0;exitX=1;exitY=0;exitDx=0;exitDy=0;entryX=0.25;entryY=0.75;entryDx=0;entryDy=0;entryPerimeter=0;" edge="1" parent="64m2rop3GXZwl_2_S2sW-144" source="64m2rop3GXZwl_2_S2sW-20" target="64m2rop3GXZwl_2_S2sW-39">
          <mxGeometry width="50" height="50" relative="1" as="geometry">
            <mxPoint x="441" y="155" as="sourcePoint" />
            <mxPoint x="476" y="120" as="targetPoint" />
          </mxGeometry>
        </mxCell>
        <mxCell id="64m2rop3GXZwl_2_S2sW-43" value="" style="ellipse;whiteSpace=wrap;html=1;aspect=fixed;strokeWidth=3;fillColor=#000000;" vertex="1" parent="64m2rop3GXZwl_2_S2sW-144">
          <mxGeometry x="504" y="50" width="28" height="28" as="geometry" />
        </mxCell>
        <mxCell id="64m2rop3GXZwl_2_S2sW-44" value="" style="endArrow=none;html=1;rounded=0;exitX=1;exitY=0;exitDx=0;exitDy=0;entryX=0.25;entryY=0.75;entryDx=0;entryDy=0;entryPerimeter=0;" edge="1" parent="64m2rop3GXZwl_2_S2sW-144">
          <mxGeometry width="50" height="50" relative="1" as="geometry">
            <mxPoint x="471.79999999999995" y="110.20000000000005" as="sourcePoint" />
            <mxPoint x="511" y="71" as="targetPoint" />
          </mxGeometry>
        </mxCell>
        <mxCell id="64m2rop3GXZwl_2_S2sW-48" style="edgeStyle=orthogonalEdgeStyle;rounded=0;orthogonalLoop=1;jettySize=auto;html=1;exitX=0.5;exitY=1;exitDx=0;exitDy=0;entryX=0.5;entryY=0;entryDx=0;entryDy=0;endArrow=none;startFill=0;jumpSize=1;" edge="1" parent="64m2rop3GXZwl_2_S2sW-144" source="64m2rop3GXZwl_2_S2sW-46" target="64m2rop3GXZwl_2_S2sW-39">
          <mxGeometry relative="1" as="geometry" />
        </mxCell>
        <mxCell id="64m2rop3GXZwl_2_S2sW-50" style="edgeStyle=orthogonalEdgeStyle;rounded=0;orthogonalLoop=1;jettySize=auto;html=1;entryX=1;entryY=0.5;entryDx=0;entryDy=0;endArrow=none;startFill=0;" edge="1" parent="64m2rop3GXZwl_2_S2sW-144" source="64m2rop3GXZwl_2_S2sW-46" target="64m2rop3GXZwl_2_S2sW-37">
          <mxGeometry relative="1" as="geometry" />
        </mxCell>
        <mxCell id="64m2rop3GXZwl_2_S2sW-46" value="" style="ellipse;whiteSpace=wrap;html=1;aspect=fixed;strokeWidth=1.5;" vertex="1" parent="64m2rop3GXZwl_2_S2sW-144">
          <mxGeometry x="448" y="50" width="28" height="28" as="geometry" />
        </mxCell>
        <mxCell id="64m2rop3GXZwl_2_S2sW-49" value="" style="edgeStyle=orthogonalEdgeStyle;rounded=0;orthogonalLoop=1;jettySize=auto;html=1;endArrow=none;startFill=0;" edge="1" parent="64m2rop3GXZwl_2_S2sW-144" source="64m2rop3GXZwl_2_S2sW-11" target="64m2rop3GXZwl_2_S2sW-18">
          <mxGeometry relative="1" as="geometry">
            <mxPoint x="266" y="78" as="sourcePoint" />
            <mxPoint x="266" y="162" as="targetPoint" />
          </mxGeometry>
        </mxCell>
        <mxCell id="64m2rop3GXZwl_2_S2sW-18" value="" style="ellipse;whiteSpace=wrap;html=1;aspect=fixed;strokeWidth=1;" vertex="1" parent="64m2rop3GXZwl_2_S2sW-144">
          <mxGeometry x="253.75" y="107.75" width="24.5" height="24.5" as="geometry" />
        </mxCell>
        <mxCell id="64m2rop3GXZwl_2_S2sW-7" value="" style="shape=image;html=1;verticalAlign=top;verticalLabelPosition=bottom;labelBackgroundColor=#ffffff;imageAspect=0;aspect=fixed;image=https://cdn1.iconfinder.com/data/icons/bootstrap-vol-2/16/circle-half-128.png;rotation=0;direction=north;" vertex="1" parent="64m2rop3GXZwl_2_S2sW-144">
          <mxGeometry x="253" y="107" width="26" height="26" as="geometry" />
        </mxCell>
        <mxCell id="64m2rop3GXZwl_2_S2sW-142" value="Data Ecosystem" style="text;html=1;align=center;verticalAlign=middle;resizable=0;points=[];autosize=1;strokeColor=none;fillColor=none;fontFamily=CMU;fontSource=https%3A%2F%2Fcdn.jsdelivr.net%2Fgh%2Fbitmaks%2Fcm-web-fonts%40latest%2Ffont%2FSerif%2Fcmunrm.woff;fontStyle=1" vertex="1" parent="64m2rop3GXZwl_2_S2sW-144">
          <mxGeometry x="588.19" y="5" width="110" height="30" as="geometry" />
        </mxCell>
        <mxCell id="64m2rop3GXZwl_2_S2sW-143" value="" style="group" vertex="1" connectable="0" parent="64m2rop3GXZwl_2_S2sW-144">
          <mxGeometry x="569.533666301317" y="41.27632152479674" width="147.30796664947036" height="155.6945676076587" as="geometry" />
        </mxCell>
        <mxCell id="64m2rop3GXZwl_2_S2sW-139" value="" style="endArrow=none;html=1;rounded=0;strokeColor=light-dark(#2F70AD,#2F70AD);" edge="1" parent="64m2rop3GXZwl_2_S2sW-143">
          <mxGeometry width="50" height="50" relative="1" as="geometry">
            <mxPoint x="93.966333698683" y="79.0536784752033" as="sourcePoint" />
            <mxPoint x="111.966333698683" y="47.0536784752033" as="targetPoint" />
          </mxGeometry>
        </mxCell>
        <mxCell id="64m2rop3GXZwl_2_S2sW-137" value="" style="ellipse;whiteSpace=wrap;html=1;rotation=-70;fillColor=none;dashed=1;dashPattern=8 8;" vertex="1" parent="64m2rop3GXZwl_2_S2sW-143">
          <mxGeometry x="43.962667397365976" y="26.304567607658612" width="105" height="70" as="geometry" />
        </mxCell>
        <mxCell id="64m2rop3GXZwl_2_S2sW-132" value="" style="ellipse;whiteSpace=wrap;html=1;rotation=-30;fillColor=none;dashed=1;dashPattern=8 8;" vertex="1" parent="64m2rop3GXZwl_2_S2sW-143">
          <mxGeometry x="10.466333698683002" y="64.13367847520334" width="105" height="70" as="geometry" />
        </mxCell>
        <mxCell id="64m2rop3GXZwl_2_S2sW-134" value="" style="endArrow=none;html=1;rounded=0;strokeColor=light-dark(#2F70AD,#2F70AD);" edge="1" parent="64m2rop3GXZwl_2_S2sW-143">
          <mxGeometry width="50" height="50" relative="1" as="geometry">
            <mxPoint x="53.966333698683" y="118.8036784752033" as="sourcePoint" />
            <mxPoint x="93.966333698683" y="100.0536784752033" as="targetPoint" />
          </mxGeometry>
        </mxCell>
        <mxCell id="64m2rop3GXZwl_2_S2sW-130" value="" style="shape=image;html=1;verticalAlign=top;verticalLabelPosition=bottom;labelBackgroundColor=#ffffff;imageAspect=0;aspect=fixed;image=https://cdn4.iconfinder.com/data/icons/essential-app-1/16/share-link-connection-network-128.png" vertex="1" parent="64m2rop3GXZwl_2_S2sW-143">
          <mxGeometry x="28.966333698683002" y="94.63367847520334" width="28" height="28" as="geometry" />
        </mxCell>
        <mxCell id="64m2rop3GXZwl_2_S2sW-131" value="" style="shape=image;html=1;verticalAlign=top;verticalLabelPosition=bottom;labelBackgroundColor=#ffffff;imageAspect=0;aspect=fixed;image=https://cdn4.iconfinder.com/data/icons/essential-app-1/16/share-link-connection-network-128.png" vertex="1" parent="64m2rop3GXZwl_2_S2sW-143">
          <mxGeometry x="68.966333698683" y="75.63367847520334" width="28" height="28" as="geometry" />
        </mxCell>
        <mxCell id="64m2rop3GXZwl_2_S2sW-135" value="" style="shape=image;html=1;verticalAlign=top;verticalLabelPosition=bottom;labelBackgroundColor=#ffffff;imageAspect=0;aspect=fixed;image=https://cdn4.iconfinder.com/data/icons/essential-app-1/16/share-link-connection-network-128.png" vertex="1" parent="64m2rop3GXZwl_2_S2sW-143">
          <mxGeometry x="87.466333698683" y="23.3036784752033" width="28" height="28" as="geometry" />
        </mxCell>
        <mxCell id="TApkLZbQQTvGUhAbI4in-1" value="" style="ellipse;whiteSpace=wrap;html=1;aspect=fixed;strokeWidth=1;fillColor=#000000;" vertex="1" parent="1">
          <mxGeometry x="465.41999999999996" y="676.97" width="20" height="20" as="geometry" />
        </mxCell>
        <mxCell id="TApkLZbQQTvGUhAbI4in-2" value="&lt;div align=&quot;left&quot;&gt;Data Provider&lt;/div&gt;" style="text;html=1;align=left;verticalAlign=middle;resizable=0;points=[];autosize=1;strokeColor=none;fillColor=none;fontFamily=CMU;fontSource=https%3A%2F%2Fcdn.jsdelivr.net%2Fgh%2Fbitmaks%2Fcm-web-fonts%40latest%2Ffont%2FSerif%2Fcmunrm.woff;" vertex="1" parent="1">
          <mxGeometry x="491.41999999999996" y="671.97" width="100" height="30" as="geometry" />
        </mxCell>
      </root>
    </mxGraphModel>
  </diagram>
  <diagram id="UNpLsLgJrClfHdt6tvWv" name="central vs decentral">
    <mxGraphModel dx="877" dy="316" grid="1" gridSize="10" guides="1" tooltips="1" connect="1" arrows="1" fold="1" page="0" pageScale="1" pageWidth="827" pageHeight="1169" math="0" shadow="0">
      <root>
        <mxCell id="0" />
        <mxCell id="1" parent="0" />
        <mxCell id="Y7ueRJPAmIVNQxK-gQTx-1" value="" style="sketch=0;outlineConnect=0;fontColor=#232F3E;gradientColor=none;fillColor=#232F3D;strokeColor=none;dashed=0;verticalLabelPosition=bottom;verticalAlign=top;align=center;html=1;fontSize=12;fontStyle=0;aspect=fixed;pointerEvents=1;shape=mxgraph.aws4.user;" vertex="1" parent="1">
          <mxGeometry x="50.330000000000155" y="380" width="28" height="28" as="geometry" />
        </mxCell>
        <mxCell id="Y7ueRJPAmIVNQxK-gQTx-2" value="" style="group" vertex="1" connectable="0" parent="1">
          <mxGeometry y="438" width="130" height="49.23000000000002" as="geometry" />
        </mxCell>
        <mxCell id="Y7ueRJPAmIVNQxK-gQTx-3" value="" style="sketch=0;verticalLabelPosition=bottom;sketch=0;aspect=fixed;html=1;verticalAlign=top;strokeColor=none;fillColor=#000000;align=center;outlineConnect=0;pointerEvents=1;shape=mxgraph.citrix2.office;" vertex="1" parent="Y7ueRJPAmIVNQxK-gQTx-2">
          <mxGeometry width="50" height="49.230000000000004" as="geometry" />
        </mxCell>
        <mxCell id="Y7ueRJPAmIVNQxK-gQTx-4" value="" style="sketch=0;verticalLabelPosition=bottom;sketch=0;aspect=fixed;html=1;verticalAlign=top;strokeColor=none;fillColor=#000000;align=center;outlineConnect=0;pointerEvents=1;shape=mxgraph.citrix2.office;" vertex="1" parent="Y7ueRJPAmIVNQxK-gQTx-2">
          <mxGeometry x="80" width="50" height="49.230000000000004" as="geometry" />
        </mxCell>
        <mxCell id="Y7ueRJPAmIVNQxK-gQTx-5" value="" style="group" vertex="1" connectable="0" parent="1">
          <mxGeometry x="-170" y="438" width="130" height="49.23000000000002" as="geometry" />
        </mxCell>
        <mxCell id="Y7ueRJPAmIVNQxK-gQTx-6" value="" style="sketch=0;verticalLabelPosition=bottom;sketch=0;aspect=fixed;html=1;verticalAlign=top;strokeColor=none;fillColor=#000000;align=center;outlineConnect=0;pointerEvents=1;shape=mxgraph.citrix2.office;" vertex="1" parent="Y7ueRJPAmIVNQxK-gQTx-5">
          <mxGeometry width="50" height="49.230000000000004" as="geometry" />
        </mxCell>
        <mxCell id="Y7ueRJPAmIVNQxK-gQTx-7" value="" style="sketch=0;verticalLabelPosition=bottom;sketch=0;aspect=fixed;html=1;verticalAlign=top;strokeColor=none;fillColor=#000000;align=center;outlineConnect=0;pointerEvents=1;shape=mxgraph.citrix2.office;" vertex="1" parent="Y7ueRJPAmIVNQxK-gQTx-5">
          <mxGeometry x="80" width="50" height="49.230000000000004" as="geometry" />
        </mxCell>
        <mxCell id="Y7ueRJPAmIVNQxK-gQTx-8" value="" style="html=1;verticalLabelPosition=bottom;align=center;labelBackgroundColor=#ffffff;verticalAlign=top;strokeWidth=1;strokeColor=light-dark(#2F70AD,#2F70AD);shadow=0;dashed=0;shape=mxgraph.ios7.icons.folder;" vertex="1" parent="Y7ueRJPAmIVNQxK-gQTx-5">
          <mxGeometry x="-5" y="34.73000000000002" width="30" height="19.5" as="geometry" />
        </mxCell>
        <mxCell id="Y7ueRJPAmIVNQxK-gQTx-9" value="" style="html=1;verticalLabelPosition=bottom;align=center;labelBackgroundColor=#ffffff;verticalAlign=top;strokeWidth=1;strokeColor=light-dark(#2F70AD,#2F70AD);shadow=0;dashed=0;shape=mxgraph.ios7.icons.folder;" vertex="1" parent="Y7ueRJPAmIVNQxK-gQTx-5">
          <mxGeometry x="75" y="34.73000000000002" width="30" height="19.5" as="geometry" />
        </mxCell>
        <mxCell id="Y7ueRJPAmIVNQxK-gQTx-10" value="" style="shape=flexArrow;endArrow=classic;html=1;rounded=0;width=3.738317757009346;endSize=2.960747663551402;endWidth=5.282557428596384;" edge="1" parent="1">
          <mxGeometry width="50" height="50" relative="1" as="geometry">
            <mxPoint x="-118.33999999999992" y="417.00000000000045" as="sourcePoint" />
            <mxPoint x="-135.33999999999992" y="434.00000000000045" as="targetPoint" />
          </mxGeometry>
        </mxCell>
        <mxCell id="Y7ueRJPAmIVNQxK-gQTx-11" value="" style="shape=flexArrow;endArrow=classic;html=1;rounded=0;width=3.738317757009346;endSize=2.960747663551402;endWidth=5.282557428596384;" edge="1" parent="1">
          <mxGeometry width="50" height="50" relative="1" as="geometry">
            <mxPoint x="-91.67000000000007" y="417.00000000000045" as="sourcePoint" />
            <mxPoint x="-74.67000000000007" y="434.00000000000045" as="targetPoint" />
          </mxGeometry>
        </mxCell>
        <mxCell id="Y7ueRJPAmIVNQxK-gQTx-12" value="" style="shape=flexArrow;endArrow=classic;html=1;rounded=0;width=3.738317757009346;endSize=2.960747663551402;endWidth=5.282557428596384;" edge="1" parent="1">
          <mxGeometry width="50" height="50" relative="1" as="geometry">
            <mxPoint x="34.65999999999963" y="434" as="sourcePoint" />
            <mxPoint x="51.65999999999963" y="417" as="targetPoint" />
          </mxGeometry>
        </mxCell>
        <mxCell id="Y7ueRJPAmIVNQxK-gQTx-13" value="" style="shape=flexArrow;endArrow=classic;html=1;rounded=0;width=3.738317757009346;endSize=2.960747663551402;endWidth=5.282557428596384;" edge="1" parent="1">
          <mxGeometry width="50" height="50" relative="1" as="geometry">
            <mxPoint x="95.32999999999947" y="434" as="sourcePoint" />
            <mxPoint x="78.32999999999947" y="417" as="targetPoint" />
          </mxGeometry>
        </mxCell>
        <mxCell id="Y7ueRJPAmIVNQxK-gQTx-14" value="" style="html=1;verticalLabelPosition=bottom;align=center;labelBackgroundColor=#ffffff;verticalAlign=top;strokeWidth=1;strokeColor=light-dark(#2F70AD,#2F70AD);shadow=0;dashed=0;shape=mxgraph.ios7.icons.folder;" vertex="1" parent="1">
          <mxGeometry x="44" y="395.5" width="30" height="19.5" as="geometry" />
        </mxCell>
        <mxCell id="Y7ueRJPAmIVNQxK-gQTx-15" value="" style="sketch=0;outlineConnect=0;fontColor=#232F3E;gradientColor=none;fillColor=#232F3D;strokeColor=none;dashed=0;verticalLabelPosition=bottom;verticalAlign=top;align=center;html=1;fontSize=12;fontStyle=0;aspect=fixed;pointerEvents=1;shape=mxgraph.aws4.user;" vertex="1" parent="1">
          <mxGeometry x="-118.34000000000015" y="380" width="28" height="28" as="geometry" />
        </mxCell>
      </root>
    </mxGraphModel>
  </diagram>
  <diagram id="8M-NLZaKJFmu_MMCDbh4" name="triangle">
    <mxGraphModel dx="901" dy="998" grid="1" gridSize="10" guides="1" tooltips="1" connect="1" arrows="1" fold="1" page="0" pageScale="1" pageWidth="827" pageHeight="1169" math="0" shadow="0">
      <root>
        <mxCell id="0" />
        <mxCell id="1" parent="0" />
        <mxCell id="DNFxGTOrfxK8GsVkBPWO-1" style="rounded=0;orthogonalLoop=1;jettySize=auto;html=1;exitX=0.023;exitY=0.944;exitDx=0;exitDy=0;endArrow=none;startFill=0;exitPerimeter=0;" edge="1" parent="1" source="DNFxGTOrfxK8GsVkBPWO-5" target="DNFxGTOrfxK8GsVkBPWO-8">
          <mxGeometry relative="1" as="geometry" />
        </mxCell>
        <mxCell id="DNFxGTOrfxK8GsVkBPWO-2" value="&lt;div&gt;&lt;font data-font-src=&quot;https://cdn.jsdelivr.net/gh/bitmaks/cm-web-fonts@latest/font/Serif/cmunrm.woff&quot; face=&quot;CMU&quot;&gt;Lese- / Schreib-&lt;/font&gt;&lt;/div&gt;&lt;div&gt;&lt;font data-font-src=&quot;https://cdn.jsdelivr.net/gh/bitmaks/cm-web-fonts@latest/font/Serif/cmunrm.woff&quot; face=&quot;CMU&quot;&gt;operationen&lt;/font&gt;&lt;/div&gt;" style="edgeLabel;html=1;align=center;verticalAlign=middle;resizable=0;points=[];" vertex="1" connectable="0" parent="DNFxGTOrfxK8GsVkBPWO-1">
          <mxGeometry x="-0.0259" relative="1" as="geometry">
            <mxPoint y="3" as="offset" />
          </mxGeometry>
        </mxCell>
        <mxCell id="DNFxGTOrfxK8GsVkBPWO-3" style="rounded=0;orthogonalLoop=1;jettySize=auto;html=1;exitX=1;exitY=1;exitDx=0;exitDy=0;entryX=0.5;entryY=0;entryDx=0;entryDy=0;endArrow=open;startFill=0;endFill=0;" edge="1" parent="1" source="DNFxGTOrfxK8GsVkBPWO-5" target="DNFxGTOrfxK8GsVkBPWO-9">
          <mxGeometry relative="1" as="geometry" />
        </mxCell>
        <mxCell id="DNFxGTOrfxK8GsVkBPWO-4" value="&lt;div&gt;&lt;font data-font-src=&quot;https://cdn.jsdelivr.net/gh/bitmaks/cm-web-fonts@latest/font/Serif/cmunrm.woff&quot; face=&quot;CMU&quot;&gt;Identifizierung&lt;/font&gt;&lt;/div&gt;&lt;div&gt;&lt;font data-font-src=&quot;https://cdn.jsdelivr.net/gh/bitmaks/cm-web-fonts@latest/font/Serif/cmunrm.woff&quot; face=&quot;CMU&quot;&gt;Authentifizierung&lt;/font&gt;&lt;/div&gt;" style="edgeLabel;html=1;align=center;verticalAlign=middle;resizable=0;points=[];" vertex="1" connectable="0" parent="DNFxGTOrfxK8GsVkBPWO-3">
          <mxGeometry x="-0.0901" y="2" relative="1" as="geometry">
            <mxPoint x="1" y="7" as="offset" />
          </mxGeometry>
        </mxCell>
        <mxCell id="DNFxGTOrfxK8GsVkBPWO-5" value="&lt;font face=&quot;CMU&quot; data-font-src=&quot;https://cdn.jsdelivr.net/gh/bitmaks/cm-web-fonts@latest/font/Serif/cmunrm.woff&quot;&gt;Anwendung&lt;br&gt;– Web –&lt;/font&gt;" style="rounded=1;whiteSpace=wrap;html=1;fontStyle=1" vertex="1" parent="1">
          <mxGeometry x="380" y="-30" width="120" height="60" as="geometry" />
        </mxCell>
        <mxCell id="DNFxGTOrfxK8GsVkBPWO-6" style="edgeStyle=orthogonalEdgeStyle;rounded=0;orthogonalLoop=1;jettySize=auto;html=1;endArrow=none;startFill=0;startArrow=open;" edge="1" parent="1" source="DNFxGTOrfxK8GsVkBPWO-8" target="DNFxGTOrfxK8GsVkBPWO-9">
          <mxGeometry relative="1" as="geometry" />
        </mxCell>
        <mxCell id="DNFxGTOrfxK8GsVkBPWO-7" value="&lt;font data-font-src=&quot;https://cdn.jsdelivr.net/gh/bitmaks/cm-web-fonts@latest/font/Serif/cmunrm.woff&quot; face=&quot;CMU&quot;&gt;identifiziert&lt;/font&gt;" style="edgeLabel;html=1;align=center;verticalAlign=middle;resizable=0;points=[];" vertex="1" connectable="0" parent="DNFxGTOrfxK8GsVkBPWO-6">
          <mxGeometry x="-0.1991" relative="1" as="geometry">
            <mxPoint x="12" as="offset" />
          </mxGeometry>
        </mxCell>
        <mxCell id="DNFxGTOrfxK8GsVkBPWO-8" value="&lt;font face=&quot;CMU&quot;&gt;Daten&lt;br&gt;– Pods –&lt;/font&gt;" style="rounded=1;whiteSpace=wrap;html=1;fontStyle=1" vertex="1" parent="1">
          <mxGeometry x="260" y="90" width="120" height="60" as="geometry" />
        </mxCell>
        <mxCell id="DNFxGTOrfxK8GsVkBPWO-9" value="&lt;div&gt;&lt;font face=&quot;CMU&quot;&gt;Identität&lt;/font&gt;&lt;/div&gt;&lt;div&gt;&lt;font face=&quot;CMU&quot;&gt;– WebID –&lt;/font&gt;&lt;/div&gt;" style="rounded=1;whiteSpace=wrap;html=1;fontStyle=1" vertex="1" parent="1">
          <mxGeometry x="500" y="90" width="120" height="60" as="geometry" />
        </mxCell>
      </root>
    </mxGraphModel>
  </diagram>
</mxfile>
